# xmcd
#
# Track frame offsets: 
#        150
#        164863
#        195490
#        231371
#
# Disc length: 4270 seconds
#
# Revision: 0
# Processed by: cddbd v1.5.1PL2 Copyright (c) Steve Scherf et al.
# Submitted via: ExactAudioCopy v0.95b3
#
DISCID=3310ac04
DTITLE=HENDRIX, JIMI - LONELY AVENUE atm-009 1of1
DYEAR=2001
DGENRE=Rock and Roll
TTITLE0=01-Ezy Rider JS 21 22
TTITLE1=02-JS 23 Jam
TTITLE2=03-Honeybed (1-4) (session)
TTITLE3=04-Ezy Rider (12) Jam ~ MLK Jam - Cherokee Mist (7) 
EXTD=
EXTT0=
EXTT1=
EXTT2=
EXTT3=
PLAYORDER=
